<svg width="74" height="50" viewBox="0 0 74 50" fill="none" xmlns="http://www.w3.org/2000/svg">
<g clip-path="url(#clip0_8_36)">
<path d="M42.328 31.512C46.768 28.108 53.28 23.076 53.28 4.28005V2.80005H20.72V4.28005C20.72 23.076 27.38 28.108 31.672 31.512C34.188 33.436 35.52 34.472 35.52 36.84V41.28C33.152 41.576 30.784 42.4641 29.896 44.2401H26.64C25.012 44.2401 23.68 45.572 23.68 47.2001H50.32C50.32 45.572 48.988 44.2401 47.36 44.2401H44.104C43.216 42.4641 40.996 41.576 38.48 41.28V36.84C38.48 34.472 39.664 33.436 42.328 31.512ZM37 32.252C36.112 31.068 34.78 30.032 33.596 29.144C29.6 26.036 24.124 21.892 23.828 5.76005H50.468C50.172 21.744 44.696 26.036 40.7 29.144C39.22 30.18 37.888 31.068 37 32.252Z" fill="black"/>
<path d="M27.824 27.96C27.676 27.96 11.84 24.556 11.84 7.24001V5.76001H22.2V8.72001H14.8C15.688 22.336 28.268 25 28.416 25L27.824 27.96Z" fill="black"/>
<path d="M46.176 27.96L45.584 25C46.176 24.852 58.312 22.188 59.2 8.72001H51.8V5.76001H62.16V7.24001C62.16 24.556 46.324 27.96 46.176 27.96Z" fill="black"/>
</g>
<defs>
<clipPath id="clip0_8_36">
<rect width="74" height="50" fill="white"/>
</clipPath>
</defs>
</svg>
